<svg width="40" height="40" viewBox="0 0 40 40" fill="none" xmlns="http://www.w3.org/2000/svg">
<path d="M11.2399 -0.0769043C10.4276 -0.0769043 9.63074 0.240479 9.03046 0.839844L1.37726 8.47687C0.489197 9.3631 0 10.542 0 11.7966C0 13.0511 0.489197 14.2303 1.37726 15.1166L9.03046 22.7536C9.92981 23.6514 11.2698 23.9166 12.4442 23.4296C13.6169 22.9431 14.3747 21.8091 14.3747 20.5408V13.3594C26.7813 13.3594 36.875 23.4531 36.875 35.8597V38.3594C36.875 39.2224 37.5745 39.9219 38.4375 39.9219C39.3005 39.9219 40 39.2224 40 38.3594V35.8597C40 29.0149 37.3346 22.5797 32.4945 17.7396C27.6544 12.8998 21.2195 10.2341 14.3747 10.2341C12.6514 10.2341 11.2494 11.636 11.2494 13.3591V20.5408C11.2494 20.5411 11.2494 20.5414 11.2494 20.5417C11.2469 20.5429 11.2439 20.5441 11.2411 20.545C11.2402 20.5438 11.239 20.5429 11.2378 20.5417L3.58459 12.9044C3.28827 12.6086 3.125 12.2153 3.125 11.7966C3.125 11.3779 3.28827 10.9845 3.58459 10.6888L11.2378 3.05176L11.2411 3.0484C11.2439 3.04932 11.2469 3.05023 11.2494 3.05145C11.2494 3.05176 11.2494 3.05206 11.2494 3.05267V4.76532C11.2494 5.62836 11.9492 6.32782 12.8122 6.32782C13.6749 6.32782 14.3747 5.62836 14.3747 4.76532V3.05267C14.3747 1.78436 13.6169 0.65033 12.4442 0.163879C12.0538 0.00183105 11.6449 -0.0769043 11.2399 -0.0769043Z" fill="#83649B"/>
</svg>
