<svg width="30" height="30" viewBox="0 0 30 30" fill="none" xmlns="http://www.w3.org/2000/svg">
<path d="M21.5701 -0.0576782C22.1793 -0.0576782 22.7769 0.180359 23.2272 0.629883L28.9671 6.35765C29.6331 7.02232 30 7.90649 30 8.84743C30 9.78836 29.6331 10.6728 28.9671 11.3374L23.2272 17.0652C22.5526 17.7386 21.5476 17.9375 20.6669 17.5722C19.7873 17.2073 19.219 16.3568 19.219 15.4056V10.0195C9.91402 10.0195 2.34375 17.5898 2.34375 26.8948V28.7695C2.34375 29.4168 1.81915 29.9414 1.17188 29.9414C0.524597 29.9414 0 29.4168 0 28.7695V26.8948C0 21.7612 1.99905 16.9347 5.62912 13.3047C9.25919 9.67484 14.0854 7.67555 19.219 7.67555C20.5115 7.67555 21.563 8.72704 21.563 10.0193V15.4056C21.563 15.4058 21.563 15.406 21.563 15.4063C21.5648 15.4072 21.5671 15.4081 21.5691 15.4088C21.5698 15.4079 21.5707 15.4072 21.5717 15.4063L27.3116 9.67827C27.5338 9.45648 27.6562 9.16145 27.6562 8.84743C27.6562 8.5334 27.5338 8.23837 27.3116 8.01659L21.5717 2.28882L21.5691 2.2863C21.5671 2.28699 21.5648 2.28767 21.563 2.28859C21.563 2.28882 21.563 2.28905 21.563 2.28951V3.57399C21.563 4.22127 21.0381 4.74586 20.3909 4.74586C19.7438 4.74586 19.219 4.22127 19.219 3.57399V2.28951C19.219 1.33827 19.7873 0.487747 20.6669 0.12291C20.9596 0.00137329 21.2663 -0.0576782 21.5701 -0.0576782Z" fill="black"/>
</svg>
