<svg width="24" height="24" viewBox="0 0 24 24" fill="none" xmlns="http://www.w3.org/2000/svg">
<path d="M22.5707 9.51925L3.20688 0.207279C2.39112 -0.185061 1.46951 -0.0124685 0.80177 0.657476C0.134035 1.32753 -0.145246 2.35993 0.0730043 3.35176L1.79655 11.1851H10.2353C10.6236 11.1851 10.9384 11.5499 10.9384 12C10.9384 12.4501 10.6236 12.815 10.2353 12.815H1.79655L0.0730043 20.6482C-0.145246 21.6401 0.133989 22.6725 0.80177 23.3425C1.47086 24.0138 2.39257 24.1843 3.20693 23.7927L22.5707 14.4808C23.4523 14.0569 24 13.1063 24 12C24 10.8938 23.4523 9.94315 22.5707 9.51925Z" fill="#83649B"/>
</svg>
